<?xml version="1.0" encoding="utf-8"?>
<!-- Svg Vector Icons : http://www.onlinewebfonts.com/icon -->
<!DOCTYPE svg PUBLIC "-//W3C//DTD SVG 1.1//EN" "http://www.w3.org/Graphics/SVG/1.1/DTD/svg11.dtd">
<svg version="1.1" xmlns="http://www.w3.org/2000/svg" xmlns:xlink="http://www.w3.org/1999/xlink" x="0px" y="0px" viewBox="0 0 256 256" enable-background="new 0 0 256 256" xml:space="preserve">
<metadata> Svg Vector Icons : http://www.onlinewebfonts.com/icon </metadata>
<g><g><g><path fill="#000000" d="M154.2,49.5c-2.5-1.6-5.4-3.3-8.7-5V12.2c0-0.6,0.2-1.1,0.7-1.5c0.4-0.4,0.9-0.7,1.5-0.7h4.4c0.6,0,1.1,0.2,1.5,0.7c0.4,0.4,0.7,0.9,0.7,1.5V49.5L154.2,49.5z M169.1,62.5c-2-2.2-4-4.2-6.2-6.2l32.3-32.2c0.4-0.5,0.9-0.7,1.5-0.7c0.6,0,1.1,0.2,1.5,0.7l3.1,3.1c0.5,0.4,0.7,0.9,0.7,1.5c0,0.6-0.2,1.1-0.7,1.5L169.1,62.5z M101.8,246c-8.3,0-16.2-1.6-23.7-4.8c-7.5-3.2-14.1-7.6-19.5-13.1c-5.5-5.5-9.8-12-13.1-19.5c-3.2-7.5-4.8-15.5-4.8-23.7v-69.9c0-8.3,1.6-16.2,4.8-23.7S53,77.1,58.5,71.6c5.5-5.5,12-9.8,19.5-13.1c7.5-3.2,15.5-4.8,23.7-4.8h8.7c8.3,0,16.2,1.6,23.7,4.8s14.1,7.6,19.5,13.1c5.5,5.5,9.8,12,13.1,19.5c3.2,7.5,4.8,15.5,4.8,23.7v69.9c0,8.3-1.6,16.2-4.8,23.7c-3.2,7.5-7.6,14.1-13.1,19.5c-5.5,5.5-12,9.8-19.5,13.1c-7.5,3.2-15.5,4.8-23.7,4.8H101.8z M104,132.4h56.8c0.6,0,1.1-0.2,1.5-0.7c0.4-0.4,0.7-0.9,0.7-1.5v-4.4c0-0.6-0.2-1.1-0.7-1.5c-0.4-0.4-0.9-0.7-1.5-0.7h-50.3v-59c0-0.6-0.2-1.1-0.7-1.5c-0.4-0.4-0.9-0.7-1.5-0.7H104c-0.6,0-1.1,0.2-1.5,0.7c-0.4,0.4-0.7,0.9-0.7,1.5v65.6c0,0.6,0.2,1.1,0.7,1.5C102.8,132.1,103.4,132.4,104,132.4z M180.9,79.9c-1.7-3.3-3.3-6.2-5-8.7h37.3c0.6,0,1.1,0.2,1.5,0.7c0.4,0.4,0.7,0.9,0.7,1.5v4.4c0,0.6-0.2,1.1-0.7,1.5c-0.4,0.5-0.9,0.7-1.5,0.7H180.9L180.9,79.9z"/></g></g></g>
</svg>